<svg width="86" height="14" viewBox="0 0 86 14" fill="none" xmlns="http://www.w3.org/2000/svg">
<path d="M6.55163 0.908494C6.73504 0.536871 7.26496 0.53687 7.44837 0.908493L8.94091 3.93272C9.01374 4.08029 9.15453 4.18258 9.31738 4.20624L12.6548 4.6912C13.0649 4.75079 13.2287 5.25478 12.9319 5.54404L10.5169 7.89808C10.3991 8.01294 10.3453 8.17844 10.3731 8.34064L10.9432 11.6646C11.0133 12.073 10.5846 12.3845 10.2178 12.1917L7.23267 10.6223C7.08701 10.5457 6.91299 10.5457 6.76733 10.6223L3.78224 12.1917C3.41543 12.3845 2.98671 12.073 3.05676 11.6646L3.62687 8.34064C3.65468 8.17844 3.60091 8.01294 3.48307 7.89808L1.06808 5.54404C0.771321 5.25478 0.935076 4.75079 1.34519 4.6912L4.68262 4.20624C4.84547 4.18258 4.98626 4.08029 5.05909 3.93272L6.55163 0.908494Z" fill="#FFDB4C"/>
<path d="M24.5516 0.908494C24.735 0.536871 25.265 0.53687 25.4484 0.908493L26.9409 3.93272C27.0137 4.08029 27.1545 4.18258 27.3174 4.20624L30.6548 4.6912C31.0649 4.75079 31.2287 5.25478 30.9319 5.54404L28.5169 7.89808C28.3991 8.01294 28.3453 8.17844 28.3731 8.34064L28.9432 11.6646C29.0133 12.073 28.5846 12.3845 28.2178 12.1917L25.2327 10.6223C25.087 10.5457 24.913 10.5457 24.7673 10.6223L21.7822 12.1917C21.4154 12.3845 20.9867 12.073 21.0568 11.6646L21.6269 8.34064C21.6547 8.17844 21.6009 8.01294 21.4831 7.89808L19.0681 5.54404C18.7713 5.25478 18.9351 4.75079 19.3452 4.6912L22.6826 4.20624C22.8455 4.18258 22.9863 4.08029 23.0591 3.93272L24.5516 0.908494Z" fill="#FFDB4C"/>
<path d="M42.5516 0.908494C42.735 0.536871 43.265 0.53687 43.4484 0.908493L44.9409 3.93272C45.0137 4.08029 45.1545 4.18258 45.3174 4.20624L48.6548 4.6912C49.0649 4.75079 49.2287 5.25478 48.9319 5.54404L46.5169 7.89808C46.3991 8.01294 46.3453 8.17844 46.3731 8.34064L46.9432 11.6646C47.0133 12.073 46.5846 12.3845 46.2178 12.1917L43.2327 10.6223C43.087 10.5457 42.913 10.5457 42.7673 10.6223L39.7822 12.1917C39.4154 12.3845 38.9867 12.073 39.0568 11.6646L39.6269 8.34064C39.6547 8.17844 39.6009 8.01294 39.4831 7.89808L37.0681 5.54404C36.7713 5.25478 36.9351 4.75079 37.3452 4.6912L40.6826 4.20624C40.8455 4.18258 40.9863 4.08029 41.0591 3.93272L42.5516 0.908494Z" fill="#FFDB4C"/>
<path d="M60.5516 0.908494C60.735 0.536871 61.265 0.53687 61.4484 0.908493L62.9409 3.93272C63.0137 4.08029 63.1545 4.18258 63.3174 4.20624L66.6548 4.6912C67.0649 4.75079 67.2287 5.25478 66.9319 5.54404L64.5169 7.89808C64.3991 8.01294 64.3453 8.17844 64.3731 8.34064L64.9432 11.6646C65.0133 12.073 64.5846 12.3845 64.2178 12.1917L61.2327 10.6223C61.087 10.5457 60.913 10.5457 60.7673 10.6223L57.7822 12.1917C57.4154 12.3845 56.9867 12.073 57.0568 11.6646L57.6269 8.34064C57.6547 8.17844 57.6009 8.01294 57.4831 7.89808L55.0681 5.54404C54.7713 5.25478 54.9351 4.75079 55.3452 4.6912L58.6826 4.20624C58.8455 4.18258 58.9863 4.08029 59.0591 3.93272L60.5516 0.908494Z" fill="#FFDB4C"/>
<path d="M78.5516 0.908494C78.735 0.536871 79.265 0.53687 79.4484 0.908493L80.9409 3.93272C81.0137 4.08029 81.1545 4.18258 81.3174 4.20624L84.6548 4.6912C85.0649 4.75079 85.2287 5.25478 84.9319 5.54404L82.5169 7.89808C82.3991 8.01294 82.3453 8.17844 82.3731 8.34064L82.9432 11.6646C83.0133 12.073 82.5846 12.3845 82.2178 12.1917L79.2327 10.6223C79.087 10.5457 78.913 10.5457 78.7673 10.6223L75.7822 12.1917C75.4154 12.3845 74.9867 12.073 75.0568 11.6646L75.6269 8.34064C75.6547 8.17844 75.6009 8.01294 75.4831 7.89808L73.0681 5.54404C72.7713 5.25478 72.9351 4.75079 73.3452 4.6912L76.6826 4.20624C76.8455 4.18258 76.9863 4.08029 77.0591 3.93272L78.5516 0.908494Z" fill="url(#paint0_linear_2004_1875)"/>
<defs>
<linearGradient id="paint0_linear_2004_1875" x1="86" y1="7" x2="72" y2="7" gradientUnits="userSpaceOnUse">
<stop offset="0.5" stop-color="#E9E9E9"/>
<stop offset="0.5" stop-color="#FBD301"/>
</linearGradient>
</defs>
</svg>

